<svg width="177" height="44" viewBox="0 0 177 44" fill="none" xmlns="http://www.w3.org/2000/svg">
<path d="M0.32 18.92C0.32 16.1467 0.92 13.68 2.12 11.52C3.32 9.33333 4.98667 7.64 7.12 6.44C9.28 5.21333 11.72 4.6 14.44 4.6C17.7733 4.6 20.6267 5.48 23 7.24C25.3733 9 26.96 11.4 27.76 14.44H20.24C19.68 13.2667 18.88 12.3733 17.84 11.76C16.8267 11.1467 15.6667 10.84 14.36 10.84C12.2533 10.84 10.5467 11.5733 9.24 13.04C7.93333 14.5067 7.28 16.4667 7.28 18.92C7.28 21.3733 7.93333 23.3333 9.24 24.8C10.5467 26.2667 12.2533 27 14.36 27C15.6667 27 16.8267 26.6933 17.84 26.08C18.88 25.4667 19.68 24.5733 20.24 23.4H27.76C26.96 26.44 25.3733 28.84 23 30.6C20.6267 32.3333 17.7733 33.2 14.44 33.2C11.72 33.2 9.28 32.6 7.12 31.4C4.98667 30.1733 3.32 28.48 2.12 26.32C0.92 24.16 0.32 21.6933 0.32 18.92ZM53.9888 10.68V33H47.1488V29.96C46.4554 30.9467 45.5088 31.7467 44.3088 32.36C43.1354 32.9467 41.8288 33.24 40.3888 33.24C38.6821 33.24 37.1754 32.8667 35.8688 32.12C34.5621 31.3467 33.5488 30.24 32.8288 28.8C32.1088 27.36 31.7488 25.6667 31.7488 23.72V10.68H38.5488V22.8C38.5488 24.2933 38.9354 25.4533 39.7088 26.28C40.4821 27.1067 41.5221 27.52 42.8288 27.52C44.1621 27.52 45.2154 27.1067 45.9888 26.28C46.7621 25.4533 47.1488 24.2933 47.1488 22.8V10.68H53.9888ZM65.7419 3.4V33H58.9019V3.4H65.7419ZM96.0956 10.44C98.709 10.44 100.789 11.2933 102.336 13C103.909 14.68 104.696 17 104.696 19.96V33H97.8956V20.88C97.8956 19.3867 97.509 18.2267 96.7356 17.4C95.9623 16.5733 94.9223 16.16 93.6156 16.16C92.309 16.16 91.269 16.5733 90.4956 17.4C89.7223 18.2267 89.3356 19.3867 89.3356 20.88V33H82.4956V10.68H89.3356V13.64C90.029 12.6533 90.9623 11.88 92.1356 11.32C93.309 10.7333 94.629 10.44 96.0956 10.44ZM108.089 21.8C108.089 19.5067 108.515 17.4933 109.369 15.76C110.249 14.0267 111.435 12.6933 112.929 11.76C114.422 10.8267 116.089 10.36 117.929 10.36C119.502 10.36 120.875 10.68 122.049 11.32C123.249 11.96 124.169 12.8 124.809 13.84V10.68H131.649V33H124.809V29.84C124.142 30.88 123.209 31.72 122.009 32.36C120.835 33 119.462 33.32 117.889 33.32C116.075 33.32 114.422 32.8533 112.929 31.92C111.435 30.96 110.249 29.6133 109.369 27.88C108.515 26.12 108.089 24.0933 108.089 21.8ZM124.809 21.84C124.809 20.1333 124.329 18.7867 123.369 17.8C122.435 16.8133 121.289 16.32 119.929 16.32C118.569 16.32 117.409 16.8133 116.449 17.8C115.515 18.76 115.049 20.0933 115.049 21.8C115.049 23.5067 115.515 24.8667 116.449 25.88C117.409 26.8667 118.569 27.36 119.929 27.36C121.289 27.36 122.435 26.8667 123.369 25.88C124.329 24.8933 124.809 23.5467 124.809 21.84ZM143.437 14.4C144.237 13.1733 145.237 12.2133 146.437 11.52C147.637 10.8 148.971 10.44 150.437 10.44V17.68H148.557C146.851 17.68 145.571 18.0533 144.717 18.8C143.864 19.52 143.437 20.8 143.437 22.64V33H136.597V10.68H143.437V14.4ZM176.507 10.68L162.507 43.6H155.147L160.267 32.24L151.187 10.68H158.827L163.987 24.64L169.107 10.68H176.507Z" fill="#EAEAEA" fill-opacity="0.88"/>
<path d="M74.1388 8.36C72.9388 8.36 71.9521 8.01333 71.1788 7.32C70.4321 6.6 70.0588 5.72 70.0588 4.68C70.0588 3.61333 70.4321 2.73333 71.1788 2.04C71.9521 1.32 72.9388 0.959998 74.1388 0.959998C75.3121 0.959998 76.2721 1.32 77.0188 2.04C77.7921 2.73333 78.1788 3.61333 78.1788 4.68C78.1788 5.72 77.7921 6.6 77.0188 7.32C76.2721 8.01333 75.3121 8.36 74.1388 8.36ZM77.5388 10.68V33H70.6988V10.68H77.5388Z" fill="#F35F3B"/>
</svg>
